<svg width="48" height="48" viewBox="0 0 48 48" fill="none" xmlns="http://www.w3.org/2000/svg">
<path d="M40.5 12.1875H34.125L32.6062 7.93125C32.5013 7.64001 32.309 7.38826 32.0557 7.21039C31.8023 7.03253 31.5002 6.93723 31.1906 6.9375H16.8094C16.1766 6.9375 15.6094 7.33594 15.3984 7.93125L13.875 12.1875H7.5C5.42812 12.1875 3.75 13.8656 3.75 15.9375V37.3125C3.75 39.3844 5.42812 41.0625 7.5 41.0625H40.5C42.5719 41.0625 44.25 39.3844 44.25 37.3125V15.9375C44.25 13.8656 42.5719 12.1875 40.5 12.1875ZM24 33.5625C19.8563 33.5625 16.5 30.2062 16.5 26.0625C16.5 21.9187 19.8563 18.5625 24 18.5625C28.1437 18.5625 31.5 21.9187 31.5 26.0625C31.5 30.2062 28.1437 33.5625 24 33.5625ZM19.5 26.0625C19.5 27.256 19.9741 28.4006 20.818 29.2445C21.6619 30.0884 22.8065 30.5625 24 30.5625C25.1935 30.5625 26.3381 30.0884 27.182 29.2445C28.0259 28.4006 28.5 27.256 28.5 26.0625C28.5 24.869 28.0259 23.7244 27.182 22.8805C26.3381 22.0366 25.1935 21.5625 24 21.5625C22.8065 21.5625 21.6619 22.0366 20.818 22.8805C19.9741 23.7244 19.5 24.869 19.5 26.0625Z" fill="white"/>
</svg>
