<svg width="24" height="30" viewBox="0 0 24 30" fill="none" xmlns="http://www.w3.org/2000/svg">
<path d="M10.5 19.5H13.5V6H16.5L12 0L7.5 6H10.5V19.5ZM22.5 10.5H18V13.5H21V27H3V13.5H6V10.5H1.5C1.10218 10.5 0.720644 10.658 0.43934 10.9393C0.158035 11.2206 0 11.6022 0 12V28.5C0 28.8978 0.158035 29.2794 0.43934 29.5607C0.720644 29.842 1.10218 30 1.5 30H22.5C22.8978 30 23.2794 29.842 23.5607 29.5607C23.842 29.2794 24 28.8978 24 28.5V12C24 11.6022 23.842 11.2206 23.5607 10.9393C23.2794 10.658 22.8978 10.5 22.5 10.5Z" fill="white"/>
</svg>
