<svg width="38" height="38" viewBox="0 0 38 38" fill="none" xmlns="http://www.w3.org/2000/svg">
<mask id="path-1-outside-1" maskUnits="userSpaceOnUse" x="0" y="0" width="38" height="38" fill="black">
<rect fill="white" width="38" height="38"/>
<path d="M19 25.75C17.2098 25.75 15.4929 25.0388 14.227 23.773C12.9612 22.5071 12.25 20.7902 12.25 19C12.25 17.2098 12.9612 15.4929 14.227 14.227C15.4929 12.9612 17.2098 12.25 19 12.25C20.7902 12.25 22.5071 12.9612 23.773 14.227C25.0388 15.4929 25.75 17.2098 25.75 19C25.75 20.7902 25.0388 22.5071 23.773 23.773C22.5071 25.0388 20.7902 25.75 19 25.75ZM19 28C21.3869 28 23.6761 27.0518 25.364 25.364C27.0518 23.6761 28 21.3869 28 19C28 16.6131 27.0518 14.3239 25.364 12.636C23.6761 10.9482 21.3869 10 19 10C16.6131 10 14.3239 10.9482 12.636 12.636C10.9482 14.3239 10 16.6131 10 19C10 21.3869 10.9482 23.6761 12.636 25.364C14.3239 27.0518 16.6131 28 19 28ZM19 1C19.2984 1 19.5845 1.11853 19.7955 1.3295C20.0065 1.54048 20.125 1.82663 20.125 2.125V6.625C20.125 6.92337 20.0065 7.20952 19.7955 7.4205C19.5845 7.63147 19.2984 7.75 19 7.75C18.7016 7.75 18.4155 7.63147 18.2045 7.4205C17.9935 7.20952 17.875 6.92337 17.875 6.625V2.125C17.875 1.82663 17.9935 1.54048 18.2045 1.3295C18.4155 1.11853 18.7016 1 19 1V1ZM19 30.25C19.2984 30.25 19.5845 30.3685 19.7955 30.5795C20.0065 30.7905 20.125 31.0766 20.125 31.375V35.875C20.125 36.1734 20.0065 36.4595 19.7955 36.6705C19.5845 36.8815 19.2984 37 19 37C18.7016 37 18.4155 36.8815 18.2045 36.6705C17.9935 36.4595 17.875 36.1734 17.875 35.875V31.375C17.875 31.0766 17.9935 30.7905 18.2045 30.5795C18.4155 30.3685 18.7016 30.25 19 30.25ZM37 19C37 19.2984 36.8815 19.5845 36.6705 19.7955C36.4595 20.0065 36.1734 20.125 35.875 20.125H31.375C31.0766 20.125 30.7905 20.0065 30.5795 19.7955C30.3685 19.5845 30.25 19.2984 30.25 19C30.25 18.7016 30.3685 18.4155 30.5795 18.2045C30.7905 17.9935 31.0766 17.875 31.375 17.875H35.875C36.1734 17.875 36.4595 17.9935 36.6705 18.2045C36.8815 18.4155 37 18.7016 37 19ZM7.75 19C7.75 19.2984 7.63147 19.5845 7.4205 19.7955C7.20952 20.0065 6.92337 20.125 6.625 20.125H2.125C1.82663 20.125 1.54048 20.0065 1.3295 19.7955C1.11853 19.5845 1 19.2984 1 19C1 18.7016 1.11853 18.4155 1.3295 18.2045C1.54048 17.9935 1.82663 17.875 2.125 17.875H6.625C6.92337 17.875 7.20952 17.9935 7.4205 18.2045C7.63147 18.4155 7.75 18.7016 7.75 19ZM31.7282 6.27175C31.9392 6.48272 32.0576 6.76882 32.0576 7.06713C32.0576 7.36543 31.9392 7.65153 31.7282 7.8625L28.5467 11.0463C28.4422 11.1507 28.318 11.2335 28.1814 11.29C28.0448 11.3465 27.8984 11.3755 27.7506 11.3754C27.452 11.3752 27.1658 11.2564 26.9549 11.0451C26.8504 10.9405 26.7676 10.8164 26.7111 10.6798C26.6547 10.5432 26.6256 10.3968 26.6257 10.249C26.626 9.95042 26.7448 9.6642 26.956 9.45325L30.1375 6.27175C30.3485 6.06084 30.6346 5.94237 30.9329 5.94237C31.2312 5.94237 31.5173 6.06084 31.7282 6.27175ZM11.044 26.956C11.2549 27.167 11.3734 27.4531 11.3734 27.7514C11.3734 28.0497 11.2549 28.3358 11.044 28.5467L7.8625 31.7282C7.65032 31.9332 7.36615 32.0466 7.07117 32.044C6.7762 32.0414 6.49404 31.9231 6.28545 31.7145C6.07687 31.506 5.95855 31.2238 5.95599 30.9288C5.95343 30.6339 6.06682 30.3497 6.27175 30.1375L9.45325 26.956C9.66422 26.7451 9.95031 26.6266 10.2486 26.6266C10.5469 26.6266 10.833 26.7451 11.044 26.956ZM31.7282 31.7282C31.5173 31.9392 31.2312 32.0576 30.9329 32.0576C30.6346 32.0576 30.3485 31.9392 30.1375 31.7282L26.956 28.5467C26.7511 28.3346 26.6377 28.0504 26.6402 27.7554C26.6428 27.4605 26.7611 27.1783 26.9697 26.9697C27.1783 26.7611 27.4605 26.6428 27.7554 26.6402C28.0504 26.6377 28.3346 26.7511 28.5467 26.956L31.7282 30.1375C31.9392 30.3485 32.0576 30.6346 32.0576 30.9329C32.0576 31.2312 31.9392 31.5173 31.7282 31.7282ZM11.044 11.0463C10.833 11.2572 10.5469 11.3756 10.2486 11.3756C9.95031 11.3756 9.66422 11.2572 9.45325 11.0463L6.27175 7.8625C6.1643 7.75872 6.0786 7.63458 6.01964 7.49733C5.96068 7.36008 5.92964 7.21245 5.92834 7.06308C5.92705 6.9137 5.95551 6.76556 6.01208 6.6273C6.06864 6.48904 6.15218 6.36343 6.25781 6.25781C6.36343 6.15218 6.48904 6.06864 6.6273 6.01208C6.76556 5.95551 6.9137 5.92705 7.06308 5.92834C7.21245 5.92964 7.36008 5.96068 7.49733 6.01964C7.63458 6.0786 7.75872 6.1643 7.8625 6.27175L11.044 9.45325C11.1488 9.55775 11.2319 9.6819 11.2886 9.81857C11.3453 9.95525 11.3745 10.1018 11.3745 10.2498C11.3745 10.3977 11.3453 10.5442 11.2886 10.6809C11.2319 10.8176 11.1488 10.9417 11.044 11.0463Z"/>
</mask>
<path d="M19 25.75C17.2098 25.75 15.4929 25.0388 14.227 23.773C12.9612 22.5071 12.25 20.7902 12.25 19C12.25 17.2098 12.9612 15.4929 14.227 14.227C15.4929 12.9612 17.2098 12.25 19 12.25C20.7902 12.25 22.5071 12.9612 23.773 14.227C25.0388 15.4929 25.75 17.2098 25.75 19C25.75 20.7902 25.0388 22.5071 23.773 23.773C22.5071 25.0388 20.7902 25.75 19 25.75ZM19 28C21.3869 28 23.6761 27.0518 25.364 25.364C27.0518 23.6761 28 21.3869 28 19C28 16.6131 27.0518 14.3239 25.364 12.636C23.6761 10.9482 21.3869 10 19 10C16.6131 10 14.3239 10.9482 12.636 12.636C10.9482 14.3239 10 16.6131 10 19C10 21.3869 10.9482 23.6761 12.636 25.364C14.3239 27.0518 16.6131 28 19 28ZM19 1C19.2984 1 19.5845 1.11853 19.7955 1.3295C20.0065 1.54048 20.125 1.82663 20.125 2.125V6.625C20.125 6.92337 20.0065 7.20952 19.7955 7.4205C19.5845 7.63147 19.2984 7.75 19 7.75C18.7016 7.75 18.4155 7.63147 18.2045 7.4205C17.9935 7.20952 17.875 6.92337 17.875 6.625V2.125C17.875 1.82663 17.9935 1.54048 18.2045 1.3295C18.4155 1.11853 18.7016 1 19 1V1ZM19 30.25C19.2984 30.25 19.5845 30.3685 19.7955 30.5795C20.0065 30.7905 20.125 31.0766 20.125 31.375V35.875C20.125 36.1734 20.0065 36.4595 19.7955 36.6705C19.5845 36.8815 19.2984 37 19 37C18.7016 37 18.4155 36.8815 18.2045 36.6705C17.9935 36.4595 17.875 36.1734 17.875 35.875V31.375C17.875 31.0766 17.9935 30.7905 18.2045 30.5795C18.4155 30.3685 18.7016 30.25 19 30.25ZM37 19C37 19.2984 36.8815 19.5845 36.6705 19.7955C36.4595 20.0065 36.1734 20.125 35.875 20.125H31.375C31.0766 20.125 30.7905 20.0065 30.5795 19.7955C30.3685 19.5845 30.25 19.2984 30.25 19C30.25 18.7016 30.3685 18.4155 30.5795 18.2045C30.7905 17.9935 31.0766 17.875 31.375 17.875H35.875C36.1734 17.875 36.4595 17.9935 36.6705 18.2045C36.8815 18.4155 37 18.7016 37 19ZM7.75 19C7.75 19.2984 7.63147 19.5845 7.4205 19.7955C7.20952 20.0065 6.92337 20.125 6.625 20.125H2.125C1.82663 20.125 1.54048 20.0065 1.3295 19.7955C1.11853 19.5845 1 19.2984 1 19C1 18.7016 1.11853 18.4155 1.3295 18.2045C1.54048 17.9935 1.82663 17.875 2.125 17.875H6.625C6.92337 17.875 7.20952 17.9935 7.4205 18.2045C7.63147 18.4155 7.75 18.7016 7.75 19ZM31.7282 6.27175C31.9392 6.48272 32.0576 6.76882 32.0576 7.06713C32.0576 7.36543 31.9392 7.65153 31.7282 7.8625L28.5467 11.0463C28.4422 11.1507 28.318 11.2335 28.1814 11.29C28.0448 11.3465 27.8984 11.3755 27.7506 11.3754C27.452 11.3752 27.1658 11.2564 26.9549 11.0451C26.8504 10.9405 26.7676 10.8164 26.7111 10.6798C26.6547 10.5432 26.6256 10.3968 26.6257 10.249C26.626 9.95042 26.7448 9.6642 26.956 9.45325L30.1375 6.27175C30.3485 6.06084 30.6346 5.94237 30.9329 5.94237C31.2312 5.94237 31.5173 6.06084 31.7282 6.27175ZM11.044 26.956C11.2549 27.167 11.3734 27.4531 11.3734 27.7514C11.3734 28.0497 11.2549 28.3358 11.044 28.5467L7.8625 31.7282C7.65032 31.9332 7.36615 32.0466 7.07117 32.044C6.7762 32.0414 6.49404 31.9231 6.28545 31.7145C6.07687 31.506 5.95855 31.2238 5.95599 30.9288C5.95343 30.6339 6.06682 30.3497 6.27175 30.1375L9.45325 26.956C9.66422 26.7451 9.95031 26.6266 10.2486 26.6266C10.5469 26.6266 10.833 26.7451 11.044 26.956ZM31.7282 31.7282C31.5173 31.9392 31.2312 32.0576 30.9329 32.0576C30.6346 32.0576 30.3485 31.9392 30.1375 31.7282L26.956 28.5467C26.7511 28.3346 26.6377 28.0504 26.6402 27.7554C26.6428 27.4605 26.7611 27.1783 26.9697 26.9697C27.1783 26.7611 27.4605 26.6428 27.7554 26.6402C28.0504 26.6377 28.3346 26.7511 28.5467 26.956L31.7282 30.1375C31.9392 30.3485 32.0576 30.6346 32.0576 30.9329C32.0576 31.2312 31.9392 31.5173 31.7282 31.7282ZM11.044 11.0463C10.833 11.2572 10.5469 11.3756 10.2486 11.3756C9.95031 11.3756 9.66422 11.2572 9.45325 11.0463L6.27175 7.8625C6.1643 7.75872 6.0786 7.63458 6.01964 7.49733C5.96068 7.36008 5.92964 7.21245 5.92834 7.06308C5.92705 6.9137 5.95551 6.76556 6.01208 6.6273C6.06864 6.48904 6.15218 6.36343 6.25781 6.25781C6.36343 6.15218 6.48904 6.06864 6.6273 6.01208C6.76556 5.95551 6.9137 5.92705 7.06308 5.92834C7.21245 5.92964 7.36008 5.96068 7.49733 6.01964C7.63458 6.0786 7.75872 6.1643 7.8625 6.27175L11.044 9.45325C11.1488 9.55775 11.2319 9.6819 11.2886 9.81857C11.3453 9.95525 11.3745 10.1018 11.3745 10.2498C11.3745 10.3977 11.3453 10.5442 11.2886 10.6809C11.2319 10.8176 11.1488 10.9417 11.044 11.0463Z" fill="white"/>
<path d="M19 25.75C17.2098 25.75 15.4929 25.0388 14.227 23.773C12.9612 22.5071 12.25 20.7902 12.25 19C12.25 17.2098 12.9612 15.4929 14.227 14.227C15.4929 12.9612 17.2098 12.25 19 12.25C20.7902 12.25 22.5071 12.9612 23.773 14.227C25.0388 15.4929 25.75 17.2098 25.75 19C25.75 20.7902 25.0388 22.5071 23.773 23.773C22.5071 25.0388 20.7902 25.75 19 25.75ZM19 28C21.3869 28 23.6761 27.0518 25.364 25.364C27.0518 23.6761 28 21.3869 28 19C28 16.6131 27.0518 14.3239 25.364 12.636C23.6761 10.9482 21.3869 10 19 10C16.6131 10 14.3239 10.9482 12.636 12.636C10.9482 14.3239 10 16.6131 10 19C10 21.3869 10.9482 23.6761 12.636 25.364C14.3239 27.0518 16.6131 28 19 28ZM19 1C19.2984 1 19.5845 1.11853 19.7955 1.3295C20.0065 1.54048 20.125 1.82663 20.125 2.125V6.625C20.125 6.92337 20.0065 7.20952 19.7955 7.4205C19.5845 7.63147 19.2984 7.75 19 7.75C18.7016 7.75 18.4155 7.63147 18.2045 7.4205C17.9935 7.20952 17.875 6.92337 17.875 6.625V2.125C17.875 1.82663 17.9935 1.54048 18.2045 1.3295C18.4155 1.11853 18.7016 1 19 1V1ZM19 30.25C19.2984 30.25 19.5845 30.3685 19.7955 30.5795C20.0065 30.7905 20.125 31.0766 20.125 31.375V35.875C20.125 36.1734 20.0065 36.4595 19.7955 36.6705C19.5845 36.8815 19.2984 37 19 37C18.7016 37 18.4155 36.8815 18.2045 36.6705C17.9935 36.4595 17.875 36.1734 17.875 35.875V31.375C17.875 31.0766 17.9935 30.7905 18.2045 30.5795C18.4155 30.3685 18.7016 30.25 19 30.25ZM37 19C37 19.2984 36.8815 19.5845 36.6705 19.7955C36.4595 20.0065 36.1734 20.125 35.875 20.125H31.375C31.0766 20.125 30.7905 20.0065 30.5795 19.7955C30.3685 19.5845 30.25 19.2984 30.25 19C30.25 18.7016 30.3685 18.4155 30.5795 18.2045C30.7905 17.9935 31.0766 17.875 31.375 17.875H35.875C36.1734 17.875 36.4595 17.9935 36.6705 18.2045C36.8815 18.4155 37 18.7016 37 19ZM7.75 19C7.75 19.2984 7.63147 19.5845 7.4205 19.7955C7.20952 20.0065 6.92337 20.125 6.625 20.125H2.125C1.82663 20.125 1.54048 20.0065 1.3295 19.7955C1.11853 19.5845 1 19.2984 1 19C1 18.7016 1.11853 18.4155 1.3295 18.2045C1.54048 17.9935 1.82663 17.875 2.125 17.875H6.625C6.92337 17.875 7.20952 17.9935 7.4205 18.2045C7.63147 18.4155 7.75 18.7016 7.75 19ZM31.7282 6.27175C31.9392 6.48272 32.0576 6.76882 32.0576 7.06713C32.0576 7.36543 31.9392 7.65153 31.7282 7.8625L28.5467 11.0463C28.4422 11.1507 28.318 11.2335 28.1814 11.29C28.0448 11.3465 27.8984 11.3755 27.7506 11.3754C27.452 11.3752 27.1658 11.2564 26.9549 11.0451C26.8504 10.9405 26.7676 10.8164 26.7111 10.6798C26.6547 10.5432 26.6256 10.3968 26.6257 10.249C26.626 9.95042 26.7448 9.6642 26.956 9.45325L30.1375 6.27175C30.3485 6.06084 30.6346 5.94237 30.9329 5.94237C31.2312 5.94237 31.5173 6.06084 31.7282 6.27175ZM11.044 26.956C11.2549 27.167 11.3734 27.4531 11.3734 27.7514C11.3734 28.0497 11.2549 28.3358 11.044 28.5467L7.8625 31.7282C7.65032 31.9332 7.36615 32.0466 7.07117 32.044C6.7762 32.0414 6.49404 31.9231 6.28545 31.7145C6.07687 31.506 5.95855 31.2238 5.95599 30.9288C5.95343 30.6339 6.06682 30.3497 6.27175 30.1375L9.45325 26.956C9.66422 26.7451 9.95031 26.6266 10.2486 26.6266C10.5469 26.6266 10.833 26.7451 11.044 26.956ZM31.7282 31.7282C31.5173 31.9392 31.2312 32.0576 30.9329 32.0576C30.6346 32.0576 30.3485 31.9392 30.1375 31.7282L26.956 28.5467C26.7511 28.3346 26.6377 28.0504 26.6402 27.7554C26.6428 27.4605 26.7611 27.1783 26.9697 26.9697C27.1783 26.7611 27.4605 26.6428 27.7554 26.6402C28.0504 26.6377 28.3346 26.7511 28.5467 26.956L31.7282 30.1375C31.9392 30.3485 32.0576 30.6346 32.0576 30.9329C32.0576 31.2312 31.9392 31.5173 31.7282 31.7282ZM11.044 11.0463C10.833 11.2572 10.5469 11.3756 10.2486 11.3756C9.95031 11.3756 9.66422 11.2572 9.45325 11.0463L6.27175 7.8625C6.1643 7.75872 6.0786 7.63458 6.01964 7.49733C5.96068 7.36008 5.92964 7.21245 5.92834 7.06308C5.92705 6.9137 5.95551 6.76556 6.01208 6.6273C6.06864 6.48904 6.15218 6.36343 6.25781 6.25781C6.36343 6.15218 6.48904 6.06864 6.6273 6.01208C6.76556 5.95551 6.9137 5.92705 7.06308 5.92834C7.21245 5.92964 7.36008 5.96068 7.49733 6.01964C7.63458 6.0786 7.75872 6.1643 7.8625 6.27175L11.044 9.45325C11.1488 9.55775 11.2319 9.6819 11.2886 9.81857C11.3453 9.95525 11.3745 10.1018 11.3745 10.2498C11.3745 10.3977 11.3453 10.5442 11.2886 10.6809C11.2319 10.8176 11.1488 10.9417 11.044 11.0463Z" stroke="white" mask="url(#path-1-outside-1)"/>
</svg>
