<svg width="34" height="34" viewBox="0 0 34 34" fill="none" xmlns="http://www.w3.org/2000/svg">
<path d="M4.16667 22.5H0.5V29.8333C0.5 31.85 2.15 33.5 4.16667 33.5H11.5V29.8333H4.16667V22.5ZM4.16667 4.16667H11.5V0.5H4.16667C2.15 0.5 0.5 2.15 0.5 4.16667V11.5H4.16667V4.16667ZM29.8333 0.5H22.5V4.16667H29.8333V11.5H33.5V4.16667C33.5 2.15 31.85 0.5 29.8333 0.5ZM29.8333 29.8333H22.5V33.5H29.8333C31.85 33.5 33.5 31.85 33.5 29.8333V22.5H29.8333V29.8333ZM17 9.66667C12.9483 9.66667 9.66667 12.9483 9.66667 17C9.66667 21.0517 12.9483 24.3333 17 24.3333C21.0517 24.3333 24.3333 21.0517 24.3333 17C24.3333 12.9483 21.0517 9.66667 17 9.66667ZM17 20.6667C14.9833 20.6667 13.3333 19.0167 13.3333 17C13.3333 14.9833 14.9833 13.3333 17 13.3333C19.0167 13.3333 20.6667 14.9833 20.6667 17C20.6667 19.0167 19.0167 20.6667 17 20.6667Z" fill="white"/>
</svg>
