<svg width="64" height="64" viewBox="0 0 64 64" fill="none" xmlns="http://www.w3.org/2000/svg">
<line x1="32" y1="26" x2="32" y2="38" stroke="white" stroke-width="2" stroke-linecap="round"/>
<line x1="26" y1="32" x2="38" y2="32" stroke="white" stroke-width="2" stroke-linecap="round"/>
<path d="M31.9428 18.5C29.7766 18.4998 27.6424 19.023 25.722 20.0248C23.8016 21.0267 22.1519 22.4777 20.9134 24.2542C19.6749 26.0306 18.8843 28.08 18.609 30.2277C18.3337 32.3754 18.5818 34.5578 19.3321 36.589C20.0825 38.6203 21.3129 40.4401 22.9185 41.8936C24.5242 43.3471 26.4574 44.3911 28.5537 44.9369C30.65 45.4826 32.8472 45.5139 34.9582 45.028C36.9186 44.5768 38.7507 43.6919 40.3207 42.4409L51.2389 53.3536L51.5923 53.7069L51.9458 53.3536L53.3535 51.9467L53.7073 51.593L53.3535 51.2394L42.4382 40.3296C43.9446 38.4481 44.9188 36.1936 45.2545 33.8015C45.6117 31.256 45.2309 28.6615 44.1571 26.3258C43.0834 23.9902 41.3619 22.0114 39.1969 20.6243C37.0319 19.2372 34.5144 18.4999 31.9428 18.5ZM31.9428 18.5L31.9428 19L31.9428 18.5ZM24.5529 24.5495C26.5128 22.5906 29.171 21.49 31.9428 21.49C34.7145 21.49 37.3728 22.5906 39.3326 24.5495C41.2925 26.5084 42.3935 29.1651 42.3935 31.9353C42.3935 34.7055 41.2925 37.3623 39.3326 39.3212C37.3728 41.2801 34.7145 42.3806 31.9428 42.3806C29.171 42.3806 26.5128 41.2801 24.5529 39.3212C22.593 37.3623 21.492 34.7055 21.492 31.9353C21.492 29.1651 22.593 26.5084 24.5529 24.5495Z" fill="white" stroke="white"/>
</svg>
