<svg width="30" height="30" viewBox="0 0 30 30" fill="none" xmlns="http://www.w3.org/2000/svg">
<path fill-rule="evenodd" clip-rule="evenodd" d="M15 1.25C15.3315 1.25 15.6495 1.3817 15.8839 1.61612C16.1183 1.85054 16.25 2.16848 16.25 2.5V3.75C16.25 4.08152 16.1183 4.39946 15.8839 4.63388C15.6495 4.8683 15.3315 5 15 5C14.6685 5 14.3505 4.8683 14.1161 4.63388C13.8817 4.39946 13.75 4.08152 13.75 3.75V2.5C13.75 2.16848 13.8817 1.85054 14.1161 1.61612C14.3505 1.3817 14.6685 1.25 15 1.25ZM4.11625 4.11625C4.35066 3.88191 4.66854 3.75027 5 3.75027C5.33146 3.75027 5.64934 3.88191 5.88375 4.11625L7.13375 5.36625C7.36145 5.602 7.48744 5.91776 7.48459 6.2455C7.48174 6.57325 7.35028 6.88676 7.11852 7.11852C6.88676 7.35028 6.57325 7.48174 6.2455 7.48459C5.91776 7.48744 5.602 7.36145 5.36625 7.13375L4.11625 5.88375C3.88191 5.64934 3.75027 5.33146 3.75027 5C3.75027 4.66854 3.88191 4.35066 4.11625 4.11625ZM25.8838 4.11625C26.1181 4.35066 26.2497 4.66854 26.2497 5C26.2497 5.33146 26.1181 5.64934 25.8838 5.88375L24.6338 7.13375C24.5184 7.25314 24.3805 7.34837 24.228 7.41388C24.0755 7.47939 23.9115 7.51387 23.7455 7.51531C23.5795 7.51676 23.4149 7.48513 23.2613 7.42228C23.1077 7.35943 22.9681 7.26661 22.8508 7.14924C22.7334 7.03188 22.6406 6.89231 22.5777 6.73869C22.5149 6.58507 22.4832 6.42047 22.4847 6.2545C22.4861 6.08852 22.5206 5.9245 22.5861 5.77199C22.6516 5.61949 22.7469 5.48156 22.8662 5.36625L24.1162 4.11625C24.3507 3.88191 24.6685 3.75027 25 3.75027C25.3315 3.75027 25.6493 3.88191 25.8838 4.11625ZM15 8.75C13.3424 8.75 11.7527 9.40848 10.5806 10.5806C9.40848 11.7527 8.75 13.3424 8.75 15C8.75 16.6576 9.40848 18.2473 10.5806 19.4194C11.7527 20.5915 13.3424 21.25 15 21.25C16.6576 21.25 18.2473 20.5915 19.4194 19.4194C20.5915 18.2473 21.25 16.6576 21.25 15C21.25 13.3424 20.5915 11.7527 19.4194 10.5806C18.2473 9.40848 16.6576 8.75 15 8.75ZM1.25 15C1.25 14.6685 1.3817 14.3505 1.61612 14.1161C1.85054 13.8817 2.16848 13.75 2.5 13.75H3.75C4.08152 13.75 4.39946 13.8817 4.63388 14.1161C4.8683 14.3505 5 14.6685 5 15C5 15.3315 4.8683 15.6495 4.63388 15.8839C4.39946 16.1183 4.08152 16.25 3.75 16.25H2.5C2.16848 16.25 1.85054 16.1183 1.61612 15.8839C1.3817 15.6495 1.25 15.3315 1.25 15ZM25 15C25 14.6685 25.1317 14.3505 25.3661 14.1161C25.6005 13.8817 25.9185 13.75 26.25 13.75H27.5C27.8315 13.75 28.1495 13.8817 28.3839 14.1161C28.6183 14.3505 28.75 14.6685 28.75 15C28.75 15.3315 28.6183 15.6495 28.3839 15.8839C28.1495 16.1183 27.8315 16.25 27.5 16.25H26.25C25.9185 16.25 25.6005 16.1183 25.3661 15.8839C25.1317 15.6495 25 15.3315 25 15ZM5.36625 22.8662C5.602 22.6386 5.91776 22.5126 6.2455 22.5154C6.57325 22.5183 6.88676 22.6497 7.11852 22.8815C7.35028 23.1132 7.48174 23.4268 7.48459 23.7545C7.48744 24.0822 7.36145 24.398 7.13375 24.6338L5.88375 25.8838C5.648 26.1114 5.33224 26.2374 5.0045 26.2346C4.67675 26.2317 4.36324 26.1003 4.13148 25.8685C3.89972 25.6368 3.76826 25.3232 3.76541 24.9955C3.76256 24.6678 3.88855 24.352 4.11625 24.1162L5.36625 22.8662ZM24.1162 25.8838L22.8662 24.6338C22.6386 24.398 22.5126 24.0822 22.5154 23.7545C22.5183 23.4268 22.6497 23.1132 22.8815 22.8815C23.1132 22.6497 23.4268 22.5183 23.7545 22.5154C24.0822 22.5126 24.398 22.6386 24.6338 22.8662L25.8838 24.1162C26.1114 24.352 26.2374 24.6678 26.2346 24.9955C26.2317 25.3232 26.1003 25.6368 25.8685 25.8685C25.6368 26.1003 25.3232 26.2317 24.9955 26.2346C24.6678 26.2374 24.352 26.1114 24.1162 25.8838ZM15 25C15.3315 25 15.6495 25.1317 15.8839 25.3661C16.1183 25.6005 16.25 25.9185 16.25 26.25V27.5C16.25 27.8315 16.1183 28.1495 15.8839 28.3839C15.6495 28.6183 15.3315 28.75 15 28.75C14.6685 28.75 14.3505 28.6183 14.1161 28.3839C13.8817 28.1495 13.75 27.8315 13.75 27.5V26.25C13.75 25.9185 13.8817 25.6005 14.1161 25.3661C14.3505 25.1317 14.6685 25 15 25Z" fill="white"/>
<path d="M15 7.5C13.0109 7.5 11.1032 8.29018 9.6967 9.6967C8.29018 11.1032 7.5 13.0109 7.5 15C7.5 16.9891 8.29018 18.8968 9.6967 20.3033C11.1032 21.7098 13.0109 22.5 15 22.5C16.9891 22.5 18.8968 21.7098 20.3033 20.3033C21.7098 18.8968 22.5 16.9891 22.5 15C22.5 13.0109 21.7098 11.1032 20.3033 9.6967C18.8968 8.29018 16.9891 7.5 15 7.5Z" fill="white"/>
</svg>
