<svg width="36" height="36" viewBox="0 0 36 36" fill="none" xmlns="http://www.w3.org/2000/svg">
<path fill-rule="evenodd" clip-rule="evenodd" d="M18 1.5C18.3978 1.5 18.7794 1.65804 19.0607 1.93934C19.342 2.22064 19.5 2.60218 19.5 3V4.5C19.5 4.89782 19.342 5.27936 19.0607 5.56066C18.7794 5.84196 18.3978 6 18 6C17.6022 6 17.2206 5.84196 16.9393 5.56066C16.658 5.27936 16.5 4.89782 16.5 4.5V3C16.5 2.60218 16.658 2.22064 16.9393 1.93934C17.2206 1.65804 17.6022 1.5 18 1.5ZM4.9395 4.9395C5.22079 4.65829 5.60225 4.50032 6 4.50032C6.39775 4.50032 6.77921 4.65829 7.0605 4.9395L8.5605 6.4395C8.83374 6.7224 8.98493 7.10131 8.98151 7.4946C8.97809 7.8879 8.82034 8.26412 8.54223 8.54223C8.26412 8.82034 7.8879 8.97809 7.4946 8.98151C7.10131 8.98493 6.7224 8.83374 6.4395 8.5605L4.9395 7.0605C4.65829 6.77921 4.50032 6.39775 4.50032 6C4.50032 5.60225 4.65829 5.22079 4.9395 4.9395ZM31.0605 4.9395C31.3417 5.22079 31.4997 5.60225 31.4997 6C31.4997 6.39775 31.3417 6.77921 31.0605 7.0605L29.5605 8.5605C29.4221 8.70376 29.2566 8.81804 29.0736 8.89665C28.8906 8.97527 28.6938 9.01664 28.4946 9.01838C28.2954 9.02011 28.0979 8.98215 27.9136 8.90673C27.7292 8.83131 27.5617 8.71993 27.4209 8.57909C27.2801 8.43825 27.1687 8.27078 27.0933 8.08643C27.0178 7.90209 26.9799 7.70457 26.9816 7.5054C26.9834 7.30623 27.0247 7.1094 27.1033 6.92639C27.182 6.74339 27.2962 6.57787 27.4395 6.4395L28.9395 4.9395C29.2208 4.65829 29.6023 4.50032 30 4.50032C30.3977 4.50032 30.7792 4.65829 31.0605 4.9395ZM1.5 18C1.5 17.6022 1.65804 17.2206 1.93934 16.9393C2.22064 16.658 2.60218 16.5 3 16.5H4.5C4.89782 16.5 5.27936 16.658 5.56066 16.9393C5.84196 17.2206 6 17.6022 6 18C6 18.3978 5.84196 18.7794 5.56066 19.0607C5.27936 19.342 4.89782 19.5 4.5 19.5H3C2.60218 19.5 2.22064 19.342 1.93934 19.0607C1.65804 18.7794 1.5 18.3978 1.5 18ZM30 18C30 17.6022 30.158 17.2206 30.4393 16.9393C30.7206 16.658 31.1022 16.5 31.5 16.5H33C33.3978 16.5 33.7794 16.658 34.0607 16.9393C34.342 17.2206 34.5 17.6022 34.5 18C34.5 18.3978 34.342 18.7794 34.0607 19.0607C33.7794 19.342 33.3978 19.5 33 19.5H31.5C31.1022 19.5 30.7206 19.342 30.4393 19.0607C30.158 18.7794 30 18.3978 30 18ZM6.4395 27.4395C6.7224 27.1663 7.10131 27.0151 7.4946 27.0185C7.8879 27.0219 8.26412 27.1797 8.54223 27.4578C8.82034 27.7359 8.97809 28.1121 8.98151 28.5054C8.98493 28.8987 8.83374 29.2776 8.5605 29.5605L7.0605 31.0605C6.7776 31.3337 6.39869 31.4849 6.0054 31.4815C5.6121 31.4781 5.23588 31.3203 4.95777 31.0422C4.67966 30.7641 4.52191 30.3879 4.51849 29.9946C4.51507 29.6013 4.66626 29.2224 4.9395 28.9395L6.4395 27.4395ZM28.9395 31.0605L27.4395 29.5605C27.1663 29.2776 27.0151 28.8987 27.0185 28.5054C27.0219 28.1121 27.1797 27.7359 27.4578 27.4578C27.7359 27.1797 28.1121 27.0219 28.5054 27.0185C28.8987 27.0151 29.2776 27.1663 29.5605 27.4395L31.0605 28.9395C31.3337 29.2224 31.4849 29.6013 31.4815 29.9946C31.4781 30.3879 31.3203 30.7641 31.0422 31.0422C30.7641 31.3203 30.3879 31.4781 29.9946 31.4815C29.6013 31.4849 29.2224 31.3337 28.9395 31.0605ZM18 30C18.3978 30 18.7794 30.158 19.0607 30.4393C19.342 30.7206 19.5 31.1022 19.5 31.5V33C19.5 33.3978 19.342 33.7794 19.0607 34.0607C18.7794 34.342 18.3978 34.5 18 34.5C17.6022 34.5 17.2206 34.342 16.9393 34.0607C16.658 33.7794 16.5 33.3978 16.5 33V31.5C16.5 31.1022 16.658 30.7206 16.9393 30.4393C17.2206 30.158 17.6022 30 18 30Z" fill="white"/>
<path d="M12.3431 12.3431C13.8434 10.8429 15.8783 10 18 10C20.1217 10 22.1566 10.8429 23.6569 12.3431C25.1571 13.8434 26 15.8783 26 18C26 20.1217 25.1571 22.1566 23.6569 23.6569C22.1566 25.1571 20.1217 26 18 26C15.8783 26 13.8434 25.1571 12.3431 23.6569C10.8429 22.1566 10 20.1217 10 18C10 15.8783 10.8429 13.8434 12.3431 12.3431Z" stroke="white" stroke-width="2"/>
</svg>
