<svg width="42" height="31" viewBox="0 0 42 31" fill="none" xmlns="http://www.w3.org/2000/svg">
<path d="M29.2667 24.2833C29.2667 26.0647 28.5591 27.7731 27.2994 29.0327C26.0398 30.2924 24.3314 31 22.55 31H7.05004C5.26867 31 3.56026 30.2924 2.30064 29.0327C1.04102 27.7731 0.333374 26.0647 0.333374 24.2833V6.71667C0.333374 4.9353 1.04102 3.22689 2.30064 1.96727C3.56026 0.707646 5.26867 0 7.05004 0H22.55C24.3314 0 26.0398 0.707646 27.2994 1.96727C28.5591 3.22689 29.2667 4.9353 29.2667 6.71667V24.2833ZM41.1748 2.87887C41.4926 3.25273 41.6669 3.72743 41.6667 4.21807V26.7819C41.6668 27.1766 41.554 27.563 41.3415 27.8956C41.1289 28.2281 40.8256 28.4929 40.4674 28.6585C40.1092 28.8242 39.711 28.8838 39.32 28.8303C38.929 28.7768 38.5614 28.6125 38.2608 28.3567L31.3334 22.4647V8.5312L38.2608 2.64327C38.4676 2.46733 38.707 2.33386 38.9654 2.25048C39.2238 2.1671 39.496 2.13544 39.7667 2.15732C40.0373 2.1792 40.3009 2.25419 40.5425 2.37799C40.7842 2.5018 40.999 2.672 41.1748 2.87887Z" fill="white"/>
</svg>
